<?xml version="1.0" encoding="utf-8"?>
<!-- Generator: Adobe Illustrator 26.0.3, SVG Export Plug-In . SVG Version: 6.00 Build 0)  -->
<svg version="1.1" id="Capa_1" xmlns="http://www.w3.org/2000/svg" xmlns:xlink="http://www.w3.org/1999/xlink" x="0px" y="0px"
	 viewBox="0 0 397 136" style="enable-background:new 0 0 397 136;" xml:space="preserve">
<style type="text/css">
	.st0{fill-rule:evenodd;clip-rule:evenodd;fill:#003D7C;}
	.st1{fill:#003D7C;}
	.st2{fill:#D00A10;}
</style>
<path class="st0" d="M267.85,71.48h33.95v-8.64H277.9V16.19h-10.04V71.48z M236.15,25.77c0,0,1.17,5.45,2.18,8.57l4.91,14.8h-14.49
	l4.91-14.8c1.09-3.11,2.34-8.57,2.34-8.57H236.15z M250.41,71.48h10.36L241.3,16.19h-10.51l-19.47,55.29h10.36l4.67-14.17h19.39
	L250.41,71.48z M170.89,64.86c0,0,6.78,7.55,19.08,7.55c11.52,0,18.22-7.4,18.22-16.2c0-17.68-26.01-15.26-26.01-25.08
	c0-3.89,3.66-6.62,8.33-6.62c6.93,0,12.23,4.83,12.23,4.83l4.36-8.18c0,0-5.61-5.92-16.51-5.92c-10.59,0-18.53,6.85-18.53,16.04
	c0,16.98,26.09,15.26,26.09,25.15c0,4.52-3.82,6.7-8.02,6.7c-7.79,0-13.78-5.84-13.78-5.84L170.89,64.86z M143.4,25.77
	c0,0,1.17,5.45,2.18,8.57l4.91,14.8h-14.49l4.91-14.8c1.09-3.11,2.34-8.57,2.34-8.57H143.4z M157.66,71.48h10.36l-19.47-55.29
	h-10.51l-19.47,55.29h10.36l4.67-14.17h19.39L157.66,71.48z M65.92,43.6c0,16.28,11.68,28.82,28.58,28.82
	c14.09,0,21.73-8.96,21.73-8.96l-5.29-7.24c0,0-6.46,7.01-16.04,7.01c-11.53,0-18.61-9.27-18.61-19.78c0-10.28,6.85-19,18.53-19
	c8.8,0,15.11,5.84,15.11,5.84l4.83-7.48c0,0-6.93-7.55-20.4-7.55C78.07,15.25,65.92,27.56,65.92,43.6z M11.87,51.62
	c0,12.38,8.96,20.79,22.35,20.79c13.32,0,22.27-8.41,22.27-20.79V16.19H46.45v35.36c0,7.48-4.91,11.68-12.3,11.68
	c-7.4,0-12.23-4.2-12.23-11.6V16.19H11.87V51.62z"/>
<polygon class="st1" points="70.88,89.82 84.03,89.82 84.03,92.58 74.06,92.58 74.06,99.66 82.17,99.66 82.17,102.42 74.06,102.42 
	74.06,109.7 84.57,109.7 84.57,112.45 70.88,112.45 "/>
<path class="st1" d="M93.6,95.85c3.75,0,5,2.56,5,2.56h0.06c0,0-0.06-0.48-0.06-1.09v-7.5h3.11v22.63h-2.95v-1.54
	c0-0.64,0.03-1.09,0.03-1.09h-0.06c0,0-1.31,3.01-5.32,3.01c-4.39,0-7.15-3.46-7.15-8.49C86.26,99.18,89.31,95.85,93.6,95.85
	 M94.02,110.15c2.4,0,4.68-1.7,4.68-5.83c0-2.88-1.51-5.77-4.58-5.77c-2.56,0-4.68,2.12-4.68,5.8
	C89.44,107.87,91.33,110.15,94.02,110.15z"/>
<path class="st1" d="M104.44,96.24h3.11v9.68c0,2.24,0.45,4.04,3.05,4.04c3.3,0,5.26-2.92,5.26-6.12v-7.6h3.11v16.22h-3.01v-2.15
	c0-0.67,0.06-1.19,0.06-1.19h-0.06c-0.67,1.6-2.79,3.72-5.96,3.72c-3.65,0-5.54-1.92-5.54-6.22V96.24z"/>
<path class="st1" d="M129.43,95.85c4.07,0,6.09,2.37,6.09,2.37l-1.48,2.18c0,0-1.73-1.86-4.49-1.86c-3.27,0-5.64,2.44-5.64,5.77
	c0,3.3,2.37,5.83,5.74,5.83c3.01,0,5-2.18,5-2.18l1.25,2.28c0,0-2.25,2.6-6.48,2.6c-5.1,0-8.69-3.62-8.69-8.49
	C120.75,99.54,124.34,95.85,129.43,95.85"/>
<path class="st1" d="M147.25,102.33h0.71v-0.29c0-2.66-1.51-3.56-3.56-3.56c-2.5,0-4.52,1.57-4.52,1.57l-1.28-2.28
	c0,0,2.34-1.92,6.06-1.92c4.1,0,6.41,2.24,6.41,6.35v10.26h-2.88v-1.54c0-0.74,0.06-1.28,0.06-1.28h-0.06c0,0-1.31,3.21-5.19,3.21
	c-2.79,0-5.51-1.7-5.51-4.94C137.47,102.55,144.52,102.33,147.25,102.33 M143.66,110.34c2.63,0,4.33-2.76,4.33-5.16v-0.51h-0.8
	c-2.34,0-6.57,0.16-6.57,3.08C140.62,109.06,141.64,110.34,143.66,110.34z"/>
<path class="st1" d="M161.96,95.85c4.07,0,6.09,2.37,6.09,2.37l-1.47,2.18c0,0-1.73-1.86-4.49-1.86c-3.27,0-5.64,2.44-5.64,5.77
	c0,3.3,2.37,5.83,5.74,5.83c3.01,0,5-2.18,5-2.18l1.25,2.28c0,0-2.24,2.6-6.47,2.6c-5.1,0-8.69-3.62-8.69-8.49
	C153.27,99.54,156.86,95.85,161.96,95.85"/>
<path class="st1" d="M170.64,89.82h3.14V93h-3.14V89.82z M170.67,96.24h3.11v16.22h-3.11V96.24z"/>
<path class="st1" d="M184.29,95.85c4.84,0,8.75,3.56,8.75,8.46c0,4.94-3.91,8.53-8.75,8.53c-4.84,0-8.75-3.59-8.75-8.53
	C175.54,99.41,179.45,95.85,184.29,95.85 M184.29,110.15c3.08,0,5.58-2.44,5.58-5.83c0-3.37-2.5-5.77-5.58-5.77
	c-3.04,0-5.58,2.4-5.58,5.77C178.72,107.71,181.25,110.15,184.29,110.15z M185.26,89.82h3.33l-3.08,4.07h-2.6L185.26,89.82z"/>
<path class="st1" d="M194.8,96.24h3.01v2.15c0,0.64-0.06,1.19-0.06,1.19h0.06c0.64-1.41,2.56-3.72,6.09-3.72
	c3.81,0,5.58,2.08,5.58,6.22v10.39h-3.11v-9.68c0-2.28-0.48-4.07-3.08-4.07c-2.47,0-4.46,1.63-5.13,3.97
	c-0.19,0.64-0.26,1.38-0.26,2.18v7.6h-3.11V96.24z"/>
<path class="st1" d="M219.16,89.82h7.5c6.92,0,11.48,4.14,11.48,11.28c0,7.18-4.55,11.35-11.48,11.35h-7.5V89.82z M226.43,109.7
	c5.1,0,8.43-3.01,8.43-8.59c0-5.55-3.37-8.53-8.43-8.53h-4.1v17.12H226.43z"/>
<path class="st1" d="M240.28,89.82h3.14V93h-3.14V89.82z M240.31,96.24h3.11v16.22h-3.11V96.24z"/>
<path class="st1" d="M252.9,116.49c2.82,0,5.13-1.25,5.13-4.55v-1.19c0-0.51,0.03-1.03,0.03-1.03H258c-0.96,1.6-2.47,2.53-4.81,2.53
	c-4.52,0-7.24-3.62-7.24-8.3c0-4.65,2.6-8.11,7.08-8.11c3.91,0,5.1,2.4,5.1,2.4h0.06c0,0-0.03-0.22-0.03-0.51v-1.51h2.98v15.55
	c0,5.35-4.07,7.4-8.17,7.4c-1.96,0-3.98-0.55-5.55-1.35l1.03-2.44C248.45,115.4,250.47,116.49,252.9,116.49 M258.1,103.99
	c0-4.23-2.05-5.45-4.58-5.45c-2.82,0-4.42,2.05-4.42,5.35c0,3.37,1.8,5.67,4.71,5.67C256.04,109.57,258.1,108.22,258.1,103.99z"/>
<path class="st1" d="M264.05,89.82h3.14V93h-3.14V89.82z M264.09,96.24h3.11v16.22h-3.11V96.24z"/>
<path class="st1" d="M271.46,98.96h-2.12v-2.5h2.21v-4.68h3.01v4.68h3.91v2.5h-3.91v7.21c0,3.24,2.28,3.65,3.46,3.65
	c0.45,0,0.74-0.06,0.74-0.06v2.76c0,0-0.45,0.06-1.09,0.06c-2.08,0-6.22-0.64-6.22-6.06V98.96z"/>
<path class="st1" d="M289.43,102.33h0.71v-0.29c0-2.66-1.51-3.56-3.56-3.56c-2.5,0-4.52,1.57-4.52,1.57l-1.28-2.28
	c0,0,2.34-1.92,6.06-1.92c4.1,0,6.41,2.24,6.41,6.35v10.26h-2.88v-1.54c0-0.74,0.06-1.28,0.06-1.28h-0.06c0,0-1.31,3.21-5.19,3.21
	c-2.79,0-5.51-1.7-5.51-4.94C279.66,102.55,286.71,102.33,289.43,102.33 M285.84,110.34c2.63,0,4.33-2.76,4.33-5.16v-0.51h-0.8
	c-2.34,0-6.57,0.16-6.57,3.08C282.8,109.06,283.83,110.34,285.84,110.34z"/>
<path class="st1" d="M296.42,89.82h3.11v17.66c0,1.96,0.77,2.31,1.73,2.31c0.29,0,0.55-0.03,0.55-0.03v2.76c0,0-0.48,0.06-1.03,0.06
	c-1.76,0-4.36-0.48-4.36-4.55V89.82z"/>
<polygon class="st2" points="361.75,62.69 334.36,16.38 313.35,16.38 340.48,61.95 311.64,112.16 332.46,112.16 "/>
<polygon class="st1" points="362.7,24.7 367.74,16.38 388.75,16.38 373.2,43.71 "/>
<polygon class="st1" points="363.16,101.31 367.28,112.16 388.29,112.16 373.67,82.3 "/>
</svg>
